<svg width="442" height="459" viewBox="0 0 442 459" fill="none" xmlns="http://www.w3.org/2000/svg">
<g filter="url(#filter0_bd_18_305)">
<path d="M292.512 25H140.651C137.89 25 135.651 27.2386 135.651 30V143.721C135.651 146.482 133.413 148.721 130.651 148.721H16C13.2386 148.721 11 150.959 11 153.721V295.349C11 298.11 13.2386 300.349 16 300.349H130.651C133.413 300.349 135.651 302.587 135.651 305.349V412.558C135.651 415.32 137.89 417.558 140.651 417.558H292.512C295.273 417.558 297.512 415.32 297.512 412.558V305.349C297.512 302.587 299.75 300.349 302.512 300.349H406C408.761 300.349 411 298.11 411 295.349V153.721C411 150.96 408.761 148.721 406 148.721H302.512C299.75 148.721 297.512 146.482 297.512 143.721V30C297.512 27.2386 295.273 25 292.512 25Z" fill="url(#paint0_linear_18_305)" fill-opacity="0.5" shape-rendering="crispEdges"/>
<path d="M292.512 25H140.651C137.89 25 135.651 27.2386 135.651 30V143.721C135.651 146.482 133.413 148.721 130.651 148.721H16C13.2386 148.721 11 150.959 11 153.721V295.349C11 298.11 13.2386 300.349 16 300.349H130.651C133.413 300.349 135.651 302.587 135.651 305.349V412.558C135.651 415.32 137.89 417.558 140.651 417.558H292.512C295.273 417.558 297.512 415.32 297.512 412.558V305.349C297.512 302.587 299.75 300.349 302.512 300.349H406C408.761 300.349 411 298.11 411 295.349V153.721C411 150.96 408.761 148.721 406 148.721H302.512C299.75 148.721 297.512 146.482 297.512 143.721V30C297.512 27.2386 295.273 25 292.512 25Z" stroke="white" stroke-opacity="0.3" shape-rendering="crispEdges"/>
</g>
<g filter="url(#filter1_bd_18_305)">
<path d="M132.953 204H90.3954C88.7385 204 87.3954 205.343 87.3954 207V238.116C87.3954 239.773 86.0522 241.116 84.3954 241.116H53C51.3431 241.116 50 242.459 50 244.116V283.605C50 285.262 51.3431 286.605 53 286.605H84.3954C86.0522 286.605 87.3954 287.948 87.3954 289.605V318.767C87.3954 320.424 88.7385 321.767 90.3954 321.767H132.953C134.61 321.767 135.953 320.424 135.953 318.767V289.605C135.953 287.948 137.297 286.605 138.953 286.605H167C168.657 286.605 170 285.262 170 283.605V244.116C170 242.459 168.657 241.116 167 241.116H138.953C137.297 241.116 135.953 239.773 135.953 238.116V207C135.953 205.343 134.61 204 132.953 204Z" fill="url(#paint1_linear_18_305)" fill-opacity="0.5" shape-rendering="crispEdges"/>
<path d="M132.953 204H90.3954C88.7385 204 87.3954 205.343 87.3954 207V238.116C87.3954 239.773 86.0522 241.116 84.3954 241.116H53C51.3431 241.116 50 242.459 50 244.116V283.605C50 285.262 51.3431 286.605 53 286.605H84.3954C86.0522 286.605 87.3954 287.948 87.3954 289.605V318.767C87.3954 320.424 88.7385 321.767 90.3954 321.767H132.953C134.61 321.767 135.953 320.424 135.953 318.767V289.605C135.953 287.948 137.297 286.605 138.953 286.605H167C168.657 286.605 170 285.262 170 283.605V244.116C170 242.459 168.657 241.116 167 241.116H138.953C137.297 241.116 135.953 239.773 135.953 238.116V207C135.953 205.343 134.61 204 132.953 204Z" stroke="white" stroke-opacity="0.3" shape-rendering="crispEdges"/>
</g>
<g filter="url(#filter2_bd_18_305)">
<path d="M261.814 335H243.581C243.029 335 242.581 335.448 242.581 336V349.465C242.581 350.017 242.134 350.465 241.581 350.465H228C227.448 350.465 227 350.913 227 351.465V368.419C227 368.971 227.448 369.419 228 369.419H241.581C242.134 369.419 242.581 369.866 242.581 370.419V383.07C242.581 383.622 243.029 384.07 243.581 384.07H261.814C262.366 384.07 262.814 383.622 262.814 383.07V370.419C262.814 369.866 263.262 369.419 263.814 369.419H276C276.552 369.419 277 368.971 277 368.419V351.465C277 350.913 276.552 350.465 276 350.465H263.814C263.262 350.465 262.814 350.017 262.814 349.465V336C262.814 335.448 262.366 335 261.814 335Z" fill="url(#paint2_linear_18_305)" fill-opacity="0.5" shape-rendering="crispEdges"/>
<path d="M261.814 335H243.581C243.029 335 242.581 335.448 242.581 336V349.465C242.581 350.017 242.134 350.465 241.581 350.465H228C227.448 350.465 227 350.913 227 351.465V368.419C227 368.971 227.448 369.419 228 369.419H241.581C242.134 369.419 242.581 369.866 242.581 370.419V383.07C242.581 383.622 243.029 384.07 243.581 384.07H261.814C262.366 384.07 262.814 383.622 262.814 383.07V370.419C262.814 369.866 263.262 369.419 263.814 369.419H276C276.552 369.419 277 368.971 277 368.419V351.465C277 350.913 276.552 350.465 276 350.465H263.814C263.262 350.465 262.814 350.017 262.814 349.465V336C262.814 335.448 262.366 335 261.814 335Z" stroke="white" stroke-opacity="0.3" shape-rendering="crispEdges"/>
</g>
<g filter="url(#filter3_bd_18_305)">
<path d="M310.93 1H248.093C245.332 1 243.093 3.23857 243.093 6V51.6744C243.093 54.4358 240.854 56.6744 238.093 56.6744H192C189.239 56.6744 187 58.913 187 61.6744V119.907C187 122.668 189.239 124.907 192 124.907H238.093C240.854 124.907 243.093 127.146 243.093 129.907V172.651C243.093 175.413 245.332 177.651 248.093 177.651H310.93C313.692 177.651 315.93 175.413 315.93 172.651V129.907C315.93 127.146 318.169 124.907 320.93 124.907H362C364.761 124.907 367 122.668 367 119.907V61.6744C367 58.913 364.761 56.6744 362 56.6744H320.93C318.169 56.6744 315.93 54.4358 315.93 51.6744V6C315.93 3.23858 313.692 1 310.93 1Z" fill="url(#paint3_linear_18_305)" fill-opacity="0.5" shape-rendering="crispEdges"/>
<path d="M310.93 1H248.093C245.332 1 243.093 3.23857 243.093 6V51.6744C243.093 54.4358 240.854 56.6744 238.093 56.6744H192C189.239 56.6744 187 58.913 187 61.6744V119.907C187 122.668 189.239 124.907 192 124.907H238.093C240.854 124.907 243.093 127.146 243.093 129.907V172.651C243.093 175.413 245.332 177.651 248.093 177.651H310.93C313.692 177.651 315.93 175.413 315.93 172.651V129.907C315.93 127.146 318.169 124.907 320.93 124.907H362C364.761 124.907 367 122.668 367 119.907V61.6744C367 58.913 364.761 56.6744 362 56.6744H320.93C318.169 56.6744 315.93 54.4358 315.93 51.6744V6C315.93 3.23858 313.692 1 310.93 1Z" stroke="white" stroke-opacity="0.3" shape-rendering="crispEdges"/>
</g>
<defs>
<filter id="filter0_bd_18_305" x="0.5" y="14.5" width="441" height="443.558" filterUnits="userSpaceOnUse" color-interpolation-filters="sRGB">
<feFlood flood-opacity="0" result="BackgroundImageFix"/>
<feGaussianBlur in="BackgroundImageFix" stdDeviation="5"/>
<feComposite in2="SourceAlpha" operator="in" result="effect1_backgroundBlur_18_305"/>
<feColorMatrix in="SourceAlpha" type="matrix" values="0 0 0 0 0 0 0 0 0 0 0 0 0 0 0 0 0 0 127 0" result="hardAlpha"/>
<feOffset dx="10" dy="20"/>
<feGaussianBlur stdDeviation="10"/>
<feComposite in2="hardAlpha" operator="out"/>
<feColorMatrix type="matrix" values="0 0 0 0 0 0 0 0 0 0 0 0 0 0 0 0 0 0 0.05 0"/>
<feBlend mode="normal" in2="effect1_backgroundBlur_18_305" result="effect2_dropShadow_18_305"/>
<feBlend mode="normal" in="SourceGraphic" in2="effect2_dropShadow_18_305" result="shape"/>
</filter>
<filter id="filter1_bd_18_305" x="39.5" y="193.5" width="161" height="168.767" filterUnits="userSpaceOnUse" color-interpolation-filters="sRGB">
<feFlood flood-opacity="0" result="BackgroundImageFix"/>
<feGaussianBlur in="BackgroundImageFix" stdDeviation="5"/>
<feComposite in2="SourceAlpha" operator="in" result="effect1_backgroundBlur_18_305"/>
<feColorMatrix in="SourceAlpha" type="matrix" values="0 0 0 0 0 0 0 0 0 0 0 0 0 0 0 0 0 0 127 0" result="hardAlpha"/>
<feOffset dx="10" dy="20"/>
<feGaussianBlur stdDeviation="10"/>
<feComposite in2="hardAlpha" operator="out"/>
<feColorMatrix type="matrix" values="0 0 0 0 0 0 0 0 0 0 0 0 0 0 0 0 0 0 0.05 0"/>
<feBlend mode="normal" in2="effect1_backgroundBlur_18_305" result="effect2_dropShadow_18_305"/>
<feBlend mode="normal" in="SourceGraphic" in2="effect2_dropShadow_18_305" result="shape"/>
</filter>
<filter id="filter2_bd_18_305" x="216.5" y="324.5" width="91" height="100.07" filterUnits="userSpaceOnUse" color-interpolation-filters="sRGB">
<feFlood flood-opacity="0" result="BackgroundImageFix"/>
<feGaussianBlur in="BackgroundImageFix" stdDeviation="5"/>
<feComposite in2="SourceAlpha" operator="in" result="effect1_backgroundBlur_18_305"/>
<feColorMatrix in="SourceAlpha" type="matrix" values="0 0 0 0 0 0 0 0 0 0 0 0 0 0 0 0 0 0 127 0" result="hardAlpha"/>
<feOffset dx="10" dy="20"/>
<feGaussianBlur stdDeviation="10"/>
<feComposite in2="hardAlpha" operator="out"/>
<feColorMatrix type="matrix" values="0 0 0 0 0 0 0 0 0 0 0 0 0 0 0 0 0 0 0.05 0"/>
<feBlend mode="normal" in2="effect1_backgroundBlur_18_305" result="effect2_dropShadow_18_305"/>
<feBlend mode="normal" in="SourceGraphic" in2="effect2_dropShadow_18_305" result="shape"/>
</filter>
<filter id="filter3_bd_18_305" x="176.5" y="-9.5" width="221" height="227.651" filterUnits="userSpaceOnUse" color-interpolation-filters="sRGB">
<feFlood flood-opacity="0" result="BackgroundImageFix"/>
<feGaussianBlur in="BackgroundImageFix" stdDeviation="5"/>
<feComposite in2="SourceAlpha" operator="in" result="effect1_backgroundBlur_18_305"/>
<feColorMatrix in="SourceAlpha" type="matrix" values="0 0 0 0 0 0 0 0 0 0 0 0 0 0 0 0 0 0 127 0" result="hardAlpha"/>
<feOffset dx="10" dy="20"/>
<feGaussianBlur stdDeviation="10"/>
<feComposite in2="hardAlpha" operator="out"/>
<feColorMatrix type="matrix" values="0 0 0 0 0 0 0 0 0 0 0 0 0 0 0 0 0 0 0.05 0"/>
<feBlend mode="normal" in2="effect1_backgroundBlur_18_305" result="effect2_dropShadow_18_305"/>
<feBlend mode="normal" in="SourceGraphic" in2="effect2_dropShadow_18_305" result="shape"/>
</filter>
<linearGradient id="paint0_linear_18_305" x1="2.62792" y1="25" x2="421.233" y2="428.721" gradientUnits="userSpaceOnUse">
<stop stop-color="white" stop-opacity="0.5"/>
<stop offset="1" stop-color="white" stop-opacity="0.15"/>
</linearGradient>
<linearGradient id="paint1_linear_18_305" x1="47.4884" y1="204" x2="173.07" y2="325.116" gradientUnits="userSpaceOnUse">
<stop stop-color="white" stop-opacity="0.5"/>
<stop offset="1" stop-color="white" stop-opacity="0.15"/>
</linearGradient>
<linearGradient id="paint2_linear_18_305" x1="225.953" y1="335" x2="278.279" y2="385.465" gradientUnits="userSpaceOnUse">
<stop stop-color="white" stop-opacity="0.5"/>
<stop offset="1" stop-color="white" stop-opacity="0.15"/>
</linearGradient>
<linearGradient id="paint3_linear_18_305" x1="183.233" y1="0.999996" x2="371.605" y2="182.674" gradientUnits="userSpaceOnUse">
<stop stop-color="white" stop-opacity="0.5"/>
<stop offset="1" stop-color="white" stop-opacity="0.15"/>
</linearGradient>
</defs>
</svg>
